<svg xmlns="http://www.w3.org/2000/svg" width="32.572" height="19" viewBox="0 0 32.572 19">
  <g id="delivery" transform="translate(0 -7)">
    <path id="Path_268" data-name="Path 268" d="M7.393,19.357H4.679a.679.679,0,0,1,0-1.357H7.393a.679.679,0,0,1,0,1.357Z" transform="translate(1.429 3.929)" fill="#fafafa"/>
    <path id="Path_269" data-name="Path 269" d="M26.054,22.214h-1.7a.679.679,0,1,1,0-1.357h1.133l.915-4.875a4.75,4.75,0,0,0-4.762-4.625H17.188l-2.159,9.5h3.9a.679.679,0,0,1,0,1.357h-4.75a.679.679,0,0,1-.662-.828l2.467-10.857A.678.678,0,0,1,16.646,10h5a6.115,6.115,0,0,1,6.107,6.107l-1.03,5.553A.677.677,0,0,1,26.054,22.214Z" transform="translate(4.821 1.071)" fill="#fafafa"/>
    <path id="Path_270" data-name="Path 270" d="M20.393,22.786a3.393,3.393,0,1,1,3.393-3.393A3.4,3.4,0,0,1,20.393,22.786Zm0-5.429a2.036,2.036,0,1,0,2.036,2.036A2.038,2.038,0,0,0,20.393,17.357Z" transform="translate(6.071 3.214)" fill="#fafafa"/>
    <path id="Path_271" data-name="Path 271" d="M9.393,22.786a3.393,3.393,0,1,1,3.393-3.393A3.4,3.4,0,0,1,9.393,22.786Zm0-5.429a2.036,2.036,0,1,0,2.036,2.036A2.038,2.038,0,0,0,9.393,17.357Z" transform="translate(2.143 3.214)" fill="#fafafa"/>
    <path id="Path_272" data-name="Path 272" d="M8.107,10.357H2.679A.679.679,0,0,1,2.679,9H8.107a.679.679,0,1,1,0,1.357Z" transform="translate(0.714 0.714)" fill="#fafafa"/>
    <path id="Path_273" data-name="Path 273" d="M8.464,13.357H1.679a.679.679,0,0,1,0-1.357H8.464a.679.679,0,0,1,0,1.357Z" transform="translate(0.357 1.786)" fill="#fafafa"/>
    <path id="Path_274" data-name="Path 274" d="M8.821,16.357H.679A.679.679,0,0,1,.679,15H8.821a.679.679,0,1,1,0,1.357Z" transform="translate(0 2.857)" fill="#fafafa"/>
    <path id="Path_275" data-name="Path 275" d="M17.571,23.286h-4.75a.679.679,0,0,1,0-1.357H17.03L20.113,8.357H4.679A.679.679,0,0,1,4.679,7H20.964a.679.679,0,0,1,.662.828L18.234,22.756A.679.679,0,0,1,17.571,23.286Z" transform="translate(1.429)" fill="#fafafa"/>
  </g>
</svg>
